<svg width="480" height="560" viewBox="0 0 480 560" fill="none" xmlns="http://www.w3.org/2000/svg">
  <rect width="480" height="560" rx="36" fill="#ECEFFE"/>
  <circle cx="372" cy="92" r="34" fill="#D8E0FF"/>
  <path d="M124 516C124 465.19 165.19 424 216 424H297C347.81 424 389 465.19 389 516V520H124V516Z" fill="#CDD8F8"/>
  <path d="M82 528C82 478.294 122.294 438 172 438H291C340.706 438 381 478.294 381 528V536H82V528Z" fill="#B9C8F1"/>
  <rect x="108" y="248" width="168" height="160" rx="20" fill="#F8E6D6"/>
  <rect x="124" y="264" width="136" height="132" rx="14" fill="#FFF7EF"/>
  <path d="M148 329C148 301.386 170.386 279 198 279C225.614 279 248 301.386 248 329V396H148V329Z" fill="#7C90C5"/>
  <path d="M173 277C173 250.49 194.49 229 221 229H227C253.51 229 275 250.49 275 277V372H173V277Z" fill="#5B7FA6"/>
  <path d="M273 227C273 246.33 257.33 262 238 262C218.67 262 203 246.33 203 227C203 207.67 218.67 192 238 192C257.33 192 273 207.67 273 227Z" fill="#F3C7A8"/>
  <path d="M288 214C288 181.968 262.032 156 230 156H222C189.968 156 164 181.968 164 214V220H288V214Z" fill="#1A1A2E"/>
  <rect x="250" y="267" width="18" height="82" rx="9" transform="rotate(-18 250 267)" fill="#F3C7A8"/>
  <rect x="255" y="282" width="90" height="114" rx="10" transform="rotate(-18 255 282)" fill="#3D4A8F"/>
  <rect x="263" y="292" width="74" height="98" rx="8" transform="rotate(-18 263 292)" fill="#FFFDF8"/>
  <path d="M150 394H303L332 520H179L150 394Z" fill="#6E83B7"/>
  <path d="M308 215C325.673 215 340 200.673 340 183C340 165.327 325.673 151 308 151C290.327 151 276 165.327 276 183" stroke="#3D4A8F" stroke-width="12" stroke-linecap="round"/>
  <path d="M108 520H389" stroke="#3D4A8F" stroke-width="12" stroke-linecap="round" opacity="0.18"/>
</svg>
